<svg xmlns="http://www.w3.org/2000/svg" width="16" height="17" viewBox="0 0 16 17" fill="none">
  <path d="M7.99996 9.16659C8.36815 9.16659 8.66663 8.86811 8.66663 8.49992C8.66663 8.13173 8.36815 7.83325 7.99996 7.83325C7.63177 7.83325 7.33329 8.13173 7.33329 8.49992C7.33329 8.86811 7.63177 9.16659 7.99996 9.16659Z" fill="#0F172A"/>
  <path d="M12.6666 9.16659C13.0348 9.16659 13.3333 8.86811 13.3333 8.49992C13.3333 8.13173 13.0348 7.83325 12.6666 7.83325C12.2984 7.83325 12 8.13173 12 8.49992C12 8.86811 12.2984 9.16659 12.6666 9.16659Z" fill="#0F172A"/>
  <path d="M3.33329 9.16659C3.70148 9.16659 3.99996 8.86811 3.99996 8.49992C3.99996 8.13173 3.70148 7.83325 3.33329 7.83325C2.9651 7.83325 2.66663 8.13173 2.66663 8.49992C2.66663 8.86811 2.9651 9.16659 3.33329 9.16659Z" fill="#0F172A"/>
  <path d="M7.99996 9.16659C8.36815 9.16659 8.66663 8.86811 8.66663 8.49992C8.66663 8.13173 8.36815 7.83325 7.99996 7.83325C7.63177 7.83325 7.33329 8.13173 7.33329 8.49992C7.33329 8.86811 7.63177 9.16659 7.99996 9.16659Z" stroke="#0F172A" stroke-linecap="round" stroke-linejoin="round"/>
  <path d="M12.6666 9.16659C13.0348 9.16659 13.3333 8.86811 13.3333 8.49992C13.3333 8.13173 13.0348 7.83325 12.6666 7.83325C12.2984 7.83325 12 8.13173 12 8.49992C12 8.86811 12.2984 9.16659 12.6666 9.16659Z" stroke="#0F172A" stroke-linecap="round" stroke-linejoin="round"/>
  <path d="M3.33329 9.16659C3.70148 9.16659 3.99996 8.86811 3.99996 8.49992C3.99996 8.13173 3.70148 7.83325 3.33329 7.83325C2.9651 7.83325 2.66663 8.13173 2.66663 8.49992C2.66663 8.86811 2.9651 9.16659 3.33329 9.16659Z" stroke="#0F172A" stroke-linecap="round" stroke-linejoin="round"/>
</svg>